{
  "accessors": [
    {
      "bufferView": 2,
      "componentType": 5126,
      "count": 3046,
      "max": [
        0.69822502136230469,
        0.6354830265045166,
        1.7268049716949463
      ],
      "min": [
        0.12221500277519226,
        -0.6354830265045166,
        0.78248798847198486
      ],
      "type": "VEC3"
    },
    {
      "bufferView": 2,
      "byteOffset": 36552,
      "componentType": 5126,
      "count": 3046,
      "max": [
        0.99999397993087769,
        1,
        0.99833542108535767
      ],
      "min": [
        -0.96130561828613281,
        -1,
        -0.99624550342559814
      ],
      "type": "VEC3"
    },
    {
      "bufferView": 3,
      "componentType": 5126,
      "count": 3046,
      "max": [
        0.99483716487884521,
        1,
        0.99364620447158813,
        1
      ],
      "min": [
        -0.99482846260070801,
        0,
        -0.99364614486694336,
        1
      ],
      "type": "VEC4"
    },
    {
      "bufferView": 1,
      "componentType": 5126,
      "count": 3046,
      "max": [
        1.169530987739563,
        1.0491930246353149
      ],
      "min": [
        -0.16953100264072418,
        -0.028404999524354935
      ],
      "type": "VEC2"
    },
    {
      "bufferView": 0,
      "componentType": 5125,
      "count": 16464,
      "max": [
        3045
      ],
      "min": [
        0
      ],
      "type": "SCALAR"
    },
    {
      "bufferView": 2,
      "byteOffset": 73104,
      "componentType": 5126,
      "count": 624,
      "max": [
        0.69588500261306763,
        0.6304280161857605,
        1.6147890090942383
      ],
      "min": [
        0.38600200414657593,
        -0.6304280161857605,
        1.0559769868850708
      ],
      "type": "VEC3"
    },
    {
      "bufferView": 2,
      "byteOffset": 80592,
      "componentType": 5126,
      "count": 624,
      "max": [
        0.99785363674163818,
        0.18303649127483368,
        0.8116600513458252
      ],
      "min": [
        0.57595229148864746,
        -0.18303649127483368,
        0.065073631703853607
      ],
      "type": "VEC3"
    },
    {
      "bufferView": 3,
      "byteOffset": 48736,
      "componentType": 5126,
      "count": 624,
      "max": [
        0.43759840726852417,
        1,
        0.54114258289337158,
        1
      ],
      "min": [
        -0.43759766221046448,
        0.83996212482452393,
        -0.54114192724227905,
        1
      ],
      "type": "VEC4"
    },
    {
      "bufferView": 1,
      "byteOffset": 24368,
      "componentType": 5126,
      "count": 624,
      "max": [
        0.99366897344589233,
        0.98855602741241455
      ],
      "min": [
        0.0063310000114142895,
        0.0015770000172778964
      ],
      "type": "VEC2"
    },
    {
      "bufferView": 0,
      "byteOffset": 65856,
      "componentType": 5125,
      "count": 2880,
      "max": [
        623
      ],
      "min": [
        0
      ],
      "type": "SCALAR"
    },
    {
      "bufferView": 2,
      "byteOffset": 88080,
      "componentType": 5126,
      "count": 5750,
      "max": [
        0.70113098621368408,
        0.80211001634597778,
        1.7358629703521729
      ],
      "min": [
        -0.70041698217391968,
        -0.80211001634597778,
        0.33502700924873352
      ],
      "type": "VEC3"
    },
    {
      "bufferView": 2,
      "byteOffset": 157080,
      "componentType": 5126,
      "count": 5750,
      "max": [
        0.99989598989486694,
        1,
        0.99988138675689697
      ],
      "min": [
        -0.99988138675689697,
        -1,
        -0.99989533424377441
      ],
      "type": "VEC3"
    },
    {
      "bufferView": 3,
      "byteOffset": 58720,
      "componentType": 5126,
      "count": 5750,
      "max": [
        0.43546345829963684,
        1,
        0.35424557328224182,
        1
      ],
      "min": [
        -0.43546351790428162,
        0,
        -0.35424557328224182,
        1
      ],
      "type": "VEC4"
    },
    {
      "bufferView": 1,
      "byteOffset": 29360,
      "componentType": 5126,
      "count": 5750,
      "max": [
        1,
        0.99981600046157837
      ],
      "min": [
        0,
        0
      ],
      "type": "VEC2"
    },
    {
      "bufferView": 0,
      "byteOffset": 77376,
      "componentType": 5125,
      "count": 31536,
      "max": [
        5749
      ],
      "min": [
        0
      ],
      "type": "SCALAR"
    },
    {
      "bufferView": 2,
      "byteOffset": 226080,
      "componentType": 5126,
      "count": 1160,
      "max": [
        0.64727997779846191,
        2.8380730152130127,
        1.6827239990234375
      ],
      "min": [
        -0.64727801084518433,
        -2.8380730152130127,
        0.38816601037979126
      ],
      "type": "VEC3"
    },
    {
      "bufferView": 2,
      "byteOffset": 240000,
      "componentType": 5126,
      "count": 1160,
      "max": [
        0.9998813271522522,
        1,
        0.9998813271522522
      ],
      "min": [
        -0.99988120794296265,
        -1,
        -0.9998813271522522
      ],
      "type": "VEC3"
    },
    {
      "bufferView": 3,
      "byteOffset": 150720,
      "componentType": 5126,
      "count": 1160,
      "max": [
        0.73533344268798828,
        0.70882672071456909,
        0.70532888174057007,
        1
      ],
      "min": [
        -0.73533350229263306,
        -0.39463922381401062,
        -0.70532882213592529,
        1
      ],
      "type": "VEC4"
    },
    {
      "bufferView": 1,
      "byteOffset": 75360,
      "componentType": 5126,
      "count": 1160,
      "max": [
        1.0313149690628052,
        1.0348080396652222
      ],
      "min": [
        -0.031314998865127563,
        -0.0052780001424252987
      ],
      "type": "VEC2"
    },
    {
      "bufferView": 0,
      "byteOffset": 203520,
      "componentType": 5125,
      "count": 5760,
      "max": [
        1159
      ],
      "min": [
        0
      ],
      "type": "SCALAR"
    },
    {
      "bufferView": 2,
      "byteOffset": 253920,
      "componentType": 5126,
      "count": 5916,
      "max": [
        0.69789397716522217,
        2.7650299072265625,
        1.7333389520645142
      ],
      "min": [
        -0.69789302349090576,
        -2.7650299072265625,
        0.0023280000314116478
      ],
      "type": "VEC3"
    },
    {
      "bufferView": 2,
      "byteOffset": 324912,
      "componentType": 5126,
      "count": 5916,
      "max": [
        1,
        1,
        0.9998813271522522
      ],
      "min": [
        -1,
        -1,
        -1
      ],
      "type": "VEC3"
    },
    {
      "bufferView": 3,
      "byteOffset": 169280,
      "componentType": 5126,
      "count": 5916,
      "max": [
        0,
        0,
        0,
        1
      ],
      "min": [
        0,
        0,
        0,
        1
      ],
      "type": "VEC4"
    },
    {
      "bufferView": 1,
      "byteOffset": 84640,
      "componentType": 5126,
      "count": 5916,
      "max": [
        1,
        0
      ],
      "min": [
        0,
        0
      ],
      "type": "VEC2"
    },
    {
      "bufferView": 0,
      "byteOffset": 226560,
      "componentType": 5125,
      "count": 32832,
      "max": [
        5915
      ],
      "min": [
        0
      ],
      "type": "SCALAR"
    }
  ],
  "asset": {
    "extras": {
      "author": "TrueCryer (https://sketchfab.com/truecryer)",
      "license": "CC-BY-4.0 (http://creativecommons.org/licenses/by/4.0/)",
      "source": "https://sketchfab.com/3d-models/cyra-15384d70a4d34ef8946f6023631d28a8",
      "title": "Cyra"
    },
    "generator": "Sketchfab-6.22.0",
    "version": "2.0"
  },
  "bufferViews": [
    {
      "buffer": 0,
      "byteLength": 357888,
      "byteOffset": 0,
      "name": "floatBufferViews",
      "target": 34963
    },
    {
      "buffer": 0,
      "byteLength": 131968,
      "byteOffset": 357888,
      "byteStride": 8,
      "name": "floatBufferViews",
      "target": 34962
    },
    {
      "buffer": 0,
      "byteLength": 395904,
      "byteOffset": 489856,
      "byteStride": 12,
      "name": "floatBufferViews",
      "target": 34962
    },
    {
      "buffer": 0,
      "byteLength": 263936,
      "byteOffset": 885760,
      "byteStride": 16,
      "name": "floatBufferViews",
      "target": 34962
    }
  ],
  "buffers": [
    {
      "byteLength": 1149696,
      "uri": "scene.bin"
    }
  ],
  "materials": [
    {
      "doubleSided": true,
      "emissiveFactor": [
        0,
        0,
        0
      ],
      "name": "Buttons",
      "pbrMetallicRoughness": {
        "baseColorFactor": [
          0.80149452669999999,
          0.0024852177999999999,
          0.0024852177999999999,
          1
        ],
        "metallicFactor": 0,
        "roughnessFactor": 0.59999999999999998
      }
    },
    {
      "doubleSided": true,
      "emissiveFactor": [
        0,
        0,
        0
      ],
      "name": "Display",
      "pbrMetallicRoughness": {
        "baseColorFactor": [
          0,
          0,
          0,
          1
        ],
        "metallicFactor": 0,
        "roughnessFactor": 0.59999999999999998
      }
    },
    {
      "doubleSided": true,
      "emissiveFactor": [
        0,
        0,
        0
      ],
      "name": "GreyPlastic",
      "pbrMetallicRoughness": {
        "baseColorFactor": [
          0.83733905320000002,
          0.020891436699999998,
          0.020891436699999998,
          1
        ],
        "metallicFactor": 0,
        "roughnessFactor": 0.59999999999999998
      }
    },
    {
      "doubleSided": true,
      "emissiveFactor": [
        0,
        0,
        0
      ],
      "name": "Steel",
      "pbrMetallicRoughness": {
        "baseColorFactor": [
          0.31034588600000002,
          0.28965155009999999,
          0.28965155009999999,
          1
        ],
        "metallicFactor": 0,
        "roughnessFactor": 0.59999999999999998
      }
    },
    {
      "doubleSided": true,
      "emissiveFactor": [
        0,
        0,
        0
      ],
      "name": "Velvet",
      "pbrMetallicRoughness": {
        "baseColorFactor": [
          0,
          0,
          0,
          1
        ],
        "metallicFactor": 0,
        "roughnessFactor": 0.59999999999999998
      }
    }
  ],
  "meshes": [
    {
      "primitives": [
        {
          "attributes": {
            "NORMAL": 1,
            "POSITION": 0,
            "TANGENT": 2,
            "TEXCOORD_0": 3
          },
          "indices": 4,
          "material": 0,
          "mode": 4
        }
      ]
    },
    {
      "primitives": [
        {
          "attributes": {
            "NORMAL": 6,
            "POSITION": 5,
            "TANGENT": 7,
            "TEXCOORD_0": 8
          },
          "indices": 9,
          "material": 1,
          "mode": 4
        }
      ]
    },
    {
      "primitives": [
        {
          "attributes": {
            "NORMAL": 11,
            "POSITION": 10,
            "TANGENT": 12,
            "TEXCOORD_0": 13
          },
          "indices": 14,
          "material": 2,
          "mode": 4
        }
      ]
    },
    {
      "primitives": [
        {
          "attributes": {
            "NORMAL": 16,
            "POSITION": 15,
            "TANGENT": 17,
            "TEXCOORD_0": 18
          },
          "indices": 19,
          "material": 4,
          "mode": 4
        }
      ]
    },
    {
      "primitives": [
        {
          "attributes": {
            "NORMAL": 21,
            "POSITION": 20,
            "TANGENT": 22,
            "TEXCOORD_0": 23
          },
          "indices": 24,
          "material": 3,
          "mode": 4
        }
      ]
    }
  ],
  "nodes": [
    {
      "children": [
        1
      ],
      "name": "RootNode (gltf orientation matrix)",
      "rotation": [
        -0.70710678118654746,
        -0,
        -0,
        0.70710678118654757
      ]
    },
    {
      "children": [
        2
      ],
      "name": "RootNode (model correction matrix)"
    },
    {
      "children": [
        3,
        4,
        5,
        6,
        7
      ],
      "name": "dc17d9d6a9d8437f9837e8efeb301ae1.obj.cleaner"
    },
    {
      "mesh": 0,
      "name": ""
    },
    {
      "mesh": 1,
      "name": ""
    },
    {
      "mesh": 2,
      "name": ""
    },
    {
      "mesh": 3,
      "name": ""
    },
    {
      "mesh": 4,
      "name": ""
    }
  ],
  "scene": 0,
  "scenes": [
    {
      "name": "OSG_Scene",
      "nodes": [
        0
      ]
    }
  ]
}

